<svg width="238" height="81" viewBox="0 0 238 81" fill="none" xmlns="http://www.w3.org/2000/svg">
<path d="M130.534 47.2469C129.657 48.3098 128.13 49.9803 126.05 51.8996C123.969 53.8189 121.306 55.9575 118.284 58.0286C115.269 60.098 111.887 62.0948 108.53 63.8955C105.186 65.7154 101.825 67.2545 98.8499 68.512C85.061 74.2844 70.0482 77.3142 55.2121 76.3477C40.4398 75.3732 25.8258 70.3559 13.9462 61.483C12.0675 60.1223 9.72284 58.063 7.7729 56.4348C7.27105 56.0439 6.81913 55.6484 6.39587 55.3117C5.9726 54.9751 5.57633 54.6903 5.21723 54.4697C4.50926 54.0405 3.95659 53.8952 3.68328 54.1866C3.11399 54.7967 3.56823 56.2713 4.94847 58.3858C6.41052 60.415 8.81569 63.0945 12.3036 65.6031C20.6784 71.7744 30.3471 76.0319 40.3727 78.4533C50.4118 80.9007 60.8326 81.433 71.0097 80.4551C85.9383 79.0285 100.356 73.996 113.332 66.6814C119.823 63.0379 126.09 58.7621 131.464 53.3426C134.137 50.6327 136.546 47.6136 138.551 44.3115C140.53 41.0159 142.075 37.3422 142.912 33.5165C143.677 30.0875 143.873 26.539 143.523 23.0259C143.166 19.5145 142.23 16.0244 140.602 12.8093C138.994 9.58924 136.577 6.73751 133.662 4.55171C130.744 2.35212 127.219 0.968764 123.634 0.438448C121.838 0.188743 120.03 0.131653 118.241 0.24517C116.453 0.36559 114.696 0.675664 112.98 1.09977C109.551 1.98414 106.305 3.42293 103.337 5.26226C97.4137 8.95997 92.433 14.2855 89.5548 20.809C88.8964 22.3596 88.3602 23.9029 87.9148 25.4902C87.4832 27.0742 87.1459 28.6867 86.9099 30.3262C86.6946 31.9607 86.579 33.6151 86.5751 35.2794C86.5935 36.9456 86.7359 38.6115 87.0005 40.27C87.5627 43.5719 88.705 46.8594 90.4901 49.7526C92.237 52.6695 94.5524 55.2172 97.1462 57.3118C102.375 61.5204 108.538 64.0178 114.709 65.6961C117.81 66.5242 120.946 67.1616 124.083 67.5873L128.78 68.1656L131.13 68.4436L133.492 68.5874C155.244 70.1351 177.148 65.9634 197.063 57.5247C201.772 55.5834 207.423 53.1254 212.302 50.3701C213.335 49.8389 214.467 49.1091 215.701 48.3477C216.926 47.5811 218.241 46.7638 219.549 45.9481C222.106 44.2214 224.588 42.3959 226.429 41.0299C227.948 39.7552 229.513 38.4259 231.078 37.2791C231.523 36.9465 231.95 36.6257 232.353 36.3254C232.743 36.0059 233.105 35.6862 233.45 35.3921C234.138 34.7902 234.738 34.2458 235.256 33.7573C236.292 32.7804 236.999 32.0134 237.382 31.4478C238.141 30.3182 237.602 29.9872 235.88 30.289C235.123 30.4187 235.321 29.5396 233.562 30.7257C233.486 30.7731 233.342 30.8731 233.279 30.9171C227.876 34.3811 222.957 38.5611 217.518 42.2381C190.521 59.641 157.275 67.3667 125.48 62.9276C123.03 62.6589 120.65 62.1913 118.268 61.6583C115.895 61.1305 113.558 60.4775 111.3 59.6669C109.029 58.8666 106.823 57.9344 104.754 56.7868C102.692 55.6376 100.708 54.3532 98.9875 52.8014C97.2621 51.2582 95.7592 49.5159 94.5266 47.5924L93.6836 46.1085C93.398 45.6149 93.1918 45.0878 92.946 44.5774C92.5269 43.5248 92.1321 42.4518 91.8737 41.339C91.3017 39.1264 91.0698 36.8108 91.1306 34.4983C91.1758 32.1821 91.5034 29.8569 92.0885 27.6016C92.3908 26.3622 92.8151 25.1447 93.2614 23.9584C93.7452 22.807 94.2599 21.6627 94.8996 20.5835C96.1414 18.3902 97.6776 16.3601 99.4035 14.4525L99.346 14.5173C101.203 12.5784 103.324 10.8902 105.607 9.48419C107.879 8.05914 110.338 6.96137 112.853 6.15678C115.236 5.41276 117.723 5.01576 120.176 5.02116C122.623 5.06437 125.057 5.48266 127.259 6.45265C128.379 6.9 129.412 7.52884 130.41 8.19519C131.389 8.90263 132.296 9.70741 133.132 10.5803C134.793 12.3431 136.106 14.4517 137.034 16.7472C138.911 21.3401 139.216 26.5928 138.357 31.4888C137.923 33.9488 137.182 36.3144 136.162 38.5496C135.126 40.8105 133.865 42.9571 132.409 44.9536C132.194 45.2749 131.882 45.6192 131.558 46.0031C131.273 46.3993 130.921 46.819 130.534 47.2469Z" fill="#E9EBF8" fill-opacity="0.4"/>
<path d="M0.740996 60.1046C0.763314 60.5954 0.961945 62.3135 1.13452 63.403C1.48977 65.93 2.27364 68.4494 3.8248 70.5157C4.06923 70.8367 4.37954 71.4338 5.79385 70.6657C7.26699 69.869 7.95518 69.0846 7.6505 68.6029C6.9299 67.418 6.06691 66.1868 5.99962 64.7438C5.89942 62.674 5.4436 60.7037 5.56333 58.6689C5.57725 58.3299 5.60499 57.9877 5.63436 57.6524L5.64866 57.4374L5.65785 57.3842L5.67093 57.2862C5.68433 57.159 5.71187 56.9992 5.84497 56.9456C5.93305 56.9172 6.02903 56.9527 6.10597 56.9999C6.14017 57.021 6.17767 57.0558 6.20661 57.0854L6.24743 57.134C6.25763 57.1462 6.25069 57.1478 6.26779 57.1583L7.68533 57.8704C8.52414 58.2975 9.36655 58.7092 10.2461 59.0318C11.7582 59.59 13.4137 59.7711 14.9753 60.2008C15.3425 60.3028 15.6666 60.7434 16.0611 60.868C16.3922 60.9714 16.934 61.1631 17.3042 61.1549C17.4642 61.1532 17.6348 61.1343 17.7473 61.2388C18.2722 61.7263 18.6388 61.2448 19.0795 59.4544C19.1749 59.0596 19.4192 58.5854 19.3657 58.2699C19.3624 58.2561 19.3627 58.2268 19.3594 58.213C19.2966 57.0024 18.6479 57.3105 18.1905 57.106C15.9326 56.113 13.6357 55.2315 11.3496 54.3036L9.23449 53.4808C8.87972 53.3393 8.53186 53.1962 8.18759 53.0377L7.50072 52.7275C7.1821 52.5847 6.86185 52.435 6.53272 52.3093C5.8301 52.0247 5.04524 51.7014 4.38502 51.9612L4.39883 51.9579C4.01985 51.99 3.63859 52.0737 3.27217 52.2196C2.9281 52.3674 2.59557 52.5635 2.33111 52.8309C1.81632 53.3332 1.44299 53.9694 1.20446 54.7122C1.07155 55.0722 1.02578 55.4916 0.96982 55.8989C0.919111 56.2977 0.850704 56.7445 0.81246 57.1038C0.738759 58.0479 0.715297 58.9581 0.816103 59.8387C0.810229 59.9058 0.738631 60.0031 0.740996 60.1046Z" fill="#E9EBF8" fill-opacity="0.4"/>
</svg>
